<svg xmlns="http://www.w3.org/2000/svg" xmlns:xlink="http://www.w3.org/1999/xlink" width="500" zoomAndPan="magnify" viewBox="0 0 375 374.999991" height="500" preserveAspectRatio="xMidYMid meet" version="1.2"><defs><clipPath id="7a6f0a69bf"><path d="M 95.316406 105 L 211 105 L 211 221.367188 L 95.316406 221.367188 Z M 95.316406 105 "/></clipPath><clipPath id="45a4c579d3"><path d="M 152 57.867188 L 196 57.867188 L 196 100 L 152 100 Z M 152 57.867188 "/></clipPath></defs><g id="50f4b3f358"><path style=" stroke:none;fill-rule:nonzero;fill:#ffffff;fill-opacity:1;" d="M 210.15625 148.277344 C 207.792969 148.277344 205.570312 147.269531 204.007812 145.476562 L 188.691406 127.878906 C 185.125 123.785156 184.925781 117.699219 188.222656 113.726562 C 190.257812 111.28125 193.230469 109.859375 196.382812 109.820312 C 199.605469 109.820312 202.546875 111.15625 204.585938 113.5 L 209.222656 118.820312 L 226.429688 95.109375 C 229.625 90.714844 235.5 89.144531 240.117188 91.472656 C 242.957031 92.902344 245.015625 95.480469 245.757812 98.535156 C 246.496094 101.597656 245.863281 104.816406 244.015625 107.363281 L 216.761719 144.914062 C 215.292969 146.933594 213.019531 148.160156 210.523438 148.269531 C 210.402344 148.273438 210.277344 148.277344 210.15625 148.277344 Z M 196.503906 115.867188 C 195.058594 115.886719 193.789062 116.496094 192.875 117.59375 C 191.449219 119.308594 191.609375 122.027344 193.25 123.910156 L 208.566406 141.507812 C 209.152344 142.175781 209.902344 142.222656 210.253906 142.230469 C 210.636719 142.210938 211.347656 142.078125 211.863281 141.359375 L 239.121094 103.8125 C 239.925781 102.703125 240.203125 101.300781 239.878906 99.964844 C 239.554688 98.613281 238.671875 97.515625 237.398438 96.875 C 235.402344 95.871094 232.792969 96.640625 231.324219 98.664062 L 211.882812 125.449219 C 211.339844 126.195312 210.488281 126.652344 209.566406 126.695312 C 208.628906 126.703125 207.757812 126.351562 207.152344 125.65625 L 200.027344 117.46875 C 199.136719 116.449219 197.855469 115.867188 196.503906 115.867188 Z M 196.503906 115.867188 "/><path style=" stroke:none;fill-rule:nonzero;fill:#ffffff;fill-opacity:1;" d="M 172.957031 196.515625 C 170.570312 196.515625 168.328125 195.585938 166.644531 193.902344 L 153.4375 180.691406 L 140.226562 193.902344 C 136.859375 197.269531 130.980469 197.273438 127.609375 193.902344 L 122.785156 189.078125 C 119.308594 185.597656 119.308594 179.9375 122.785156 176.460938 L 135.992188 163.25 L 122.785156 150.039062 C 121.097656 148.355469 120.167969 146.113281 120.167969 143.730469 C 120.167969 141.347656 121.097656 139.105469 122.785156 137.421875 L 127.605469 132.597656 C 130.980469 129.226562 136.859375 129.230469 140.226562 132.597656 L 153.433594 145.808594 L 162.441406 136.808594 C 163.164062 136.082031 164.203125 135.761719 165.207031 135.988281 C 166.210938 136.203125 167.039062 136.910156 167.40625 137.867188 C 169.582031 143.574219 172.714844 148.808594 176.726562 153.421875 C 177.765625 154.621094 177.703125 156.421875 176.582031 157.542969 L 170.878906 163.25 L 184.085938 176.460938 C 187.5625 179.9375 187.5625 185.601562 184.085938 189.078125 L 179.265625 193.902344 C 177.578125 195.585938 175.339844 196.515625 172.957031 196.515625 Z M 153.433594 173.390625 C 154.210938 173.390625 154.984375 173.6875 155.574219 174.277344 L 170.921875 189.625 C 172.003906 190.707031 173.902344 190.714844 174.988281 189.625 L 179.808594 184.804688 C 180.929688 183.683594 180.933594 181.859375 179.808594 180.738281 L 164.464844 165.386719 C 163.28125 164.207031 163.28125 162.292969 164.464844 161.113281 L 170.359375 155.214844 C 167.683594 151.816406 165.410156 148.144531 163.554688 144.242188 L 155.574219 152.222656 C 154.390625 153.40625 152.480469 153.40625 151.296875 152.222656 L 135.949219 136.875 C 134.828125 135.746094 132.996094 135.753906 131.882812 136.875 L 127.058594 141.699219 C 125.9375 142.820312 125.9375 144.644531 127.058594 145.765625 L 142.40625 161.113281 C 143.589844 162.292969 143.589844 164.207031 142.40625 165.386719 L 127.058594 180.738281 C 125.9375 181.855469 125.941406 183.683594 127.058594 184.804688 L 131.882812 189.625 C 132.972656 190.714844 134.867188 190.707031 135.949219 189.625 L 151.296875 174.277344 C 151.886719 173.6875 152.660156 173.390625 153.433594 173.390625 Z M 153.433594 173.390625 "/><g clip-rule="nonzero" clip-path="url(#7a6f0a69bf)"><path style=" stroke:none;fill-rule:nonzero;fill:#ffffff;fill-opacity:1;" d="M 153.433594 221.371094 C 121.390625 221.371094 95.320312 195.300781 95.320312 163.25 C 95.320312 131.203125 121.390625 105.132812 153.433594 105.132812 C 156.183594 105.132812 159.113281 105.378906 162.398438 105.890625 C 163.210938 106.015625 163.933594 106.464844 164.40625 107.136719 C 164.882812 107.808594 165.0625 108.644531 164.90625 109.449219 C 164.261719 112.769531 163.941406 116.09375 163.941406 119.335938 C 163.941406 145.148438 182.460938 166.742188 207.976562 170.679688 C 208.789062 170.804688 209.511719 171.253906 209.988281 171.925781 C 210.460938 172.597656 210.644531 173.429688 210.484375 174.238281 C 205.253906 201.550781 181.257812 221.371094 153.433594 221.371094 Z M 153.433594 111.179688 C 124.726562 111.179688 101.367188 134.539062 101.367188 163.25 C 101.367188 191.964844 124.726562 215.324219 153.433594 215.324219 C 177.34375 215.324219 198.085938 198.992188 203.886719 176.078125 C 177.046875 170.445312 157.890625 147.074219 157.890625 119.335938 C 157.890625 116.742188 158.078125 114.109375 158.441406 111.464844 C 156.664062 111.273438 155.011719 111.179688 153.433594 111.179688 Z M 153.433594 111.179688 "/></g><path style=" stroke:none;fill-rule:nonzero;fill:#ffffff;fill-opacity:1;" d="M 215.960938 177.40625 C 183.941406 177.40625 157.890625 151.355469 157.890625 119.335938 C 157.890625 110.898438 159.714844 102.691406 163.3125 94.941406 C 163.667969 94.179688 164.320312 93.601562 165.117188 93.339844 L 169.980469 89.863281 C 172.382812 88.121094 175.59375 88.125 177.992188 89.863281 L 182.609375 93.21875 C 182.902344 93.4375 183.210938 93.433594 183.511719 93.21875 C 183.808594 93.003906 183.902344 92.714844 183.789062 92.363281 L 182.027344 86.933594 C 181.109375 84.121094 182.101562 81.058594 184.496094 79.316406 L 189.117188 75.960938 C 189.414062 75.746094 189.507812 75.460938 189.398438 75.113281 C 189.285156 74.757812 189.039062 74.578125 188.671875 74.578125 C 187.308594 74.566406 186.113281 73.644531 185.769531 72.320312 C 185.421875 71 186.003906 69.609375 187.191406 68.929688 C 195.960938 63.910156 205.910156 61.261719 215.960938 61.261719 C 247.984375 61.261719 274.035156 87.3125 274.035156 119.335938 C 274.035156 127.394531 272.390625 135.230469 269.140625 142.621094 C 268.660156 143.722656 267.574219 144.429688 266.375 144.429688 C 263.210938 144.429688 260.605469 142.539062 259.691406 139.722656 L 257.929688 134.292969 C 257.695312 133.589844 256.695312 133.597656 256.46875 134.292969 L 254.703125 139.722656 C 253.789062 142.539062 251.183594 144.429688 248.222656 144.429688 L 242.519531 144.429688 C 242.148438 144.429688 241.898438 144.609375 241.785156 144.960938 C 241.671875 145.3125 241.765625 145.597656 242.066406 145.816406 L 246.683594 149.171875 C 249.082031 150.914062 250.074219 153.972656 249.15625 156.789062 L 247.390625 162.21875 C 247.351562 162.347656 247.226562 162.742188 247.671875 163.066406 C 248.472656 163.65625 248.933594 164.597656 248.90625 165.589844 C 248.875 166.585938 248.359375 167.496094 247.527344 168.039062 C 238.09375 174.167969 227.175781 177.40625 215.960938 177.40625 Z M 168.347656 98.480469 C 165.425781 105.132812 163.941406 112.144531 163.941406 119.335938 C 163.941406 148.019531 187.273438 171.359375 215.960938 171.359375 C 224.984375 171.359375 233.792969 169.015625 241.621094 164.558594 C 241.191406 163.234375 241.179688 161.773438 241.640625 160.351562 C 241.644531 160.347656 243.40625 154.921875 243.40625 154.921875 C 243.507812 154.605469 243.398438 154.257812 243.128906 154.0625 L 238.515625 150.710938 C 236.082031 148.945312 235.109375 145.953125 236.035156 143.09375 C 236.960938 140.230469 239.511719 138.382812 242.519531 138.382812 L 248.222656 138.382812 C 248.558594 138.382812 248.847656 138.171875 248.953125 137.851562 L 250.71875 132.425781 C 251.648438 129.566406 254.191406 127.71875 257.199219 127.71875 C 260.203125 127.71875 262.746094 129.566406 263.675781 132.425781 L 265.03125 136.589844 C 266.996094 131.042969 267.988281 125.257812 267.988281 119.335938 C 267.988281 90.648438 244.648438 67.308594 215.960938 67.308594 C 208.59375 67.308594 201.292969 68.898438 194.574219 71.941406 C 194.8125 72.351562 195.003906 72.792969 195.152344 73.261719 C 196.070312 76.113281 195.09375 79.09375 192.667969 80.855469 L 188.050781 84.207031 C 187.789062 84.402344 187.671875 84.75 187.773438 85.066406 L 189.539062 90.496094 C 190.46875 93.355469 189.5 96.34375 187.066406 98.109375 C 184.632812 99.878906 181.488281 99.878906 179.054688 98.113281 L 174.433594 94.757812 C 174.167969 94.5625 173.808594 94.558594 173.539062 94.753906 L 168.921875 98.113281 C 168.734375 98.246094 168.546875 98.367188 168.347656 98.480469 Z M 168.347656 98.480469 "/><path style=" stroke:none;fill-rule:nonzero;fill:#ffffff;fill-opacity:1;" d="M 266.269531 169.292969 C 264.878906 169.292969 263.484375 168.851562 262.265625 167.96875 L 257.644531 164.613281 C 257.382812 164.417969 257.023438 164.414062 256.75 164.609375 L 252.132812 167.96875 C 249.691406 169.734375 246.550781 169.734375 244.117188 167.96875 C 241.683594 166.199219 240.714844 163.207031 241.644531 160.351562 L 243.410156 154.921875 C 243.511719 154.605469 243.402344 154.257812 243.128906 154.0625 L 238.515625 150.710938 C 236.082031 148.945312 235.109375 145.953125 236.035156 143.09375 C 236.964844 140.230469 239.511719 138.382812 242.519531 138.382812 L 248.222656 138.382812 C 248.558594 138.382812 248.851562 138.171875 248.957031 137.851562 L 250.71875 132.425781 C 251.644531 129.5625 254.191406 127.71875 257.199219 127.71875 C 260.203125 127.71875 262.75 129.5625 263.675781 132.425781 L 265.441406 137.851562 C 265.546875 138.171875 265.839844 138.382812 266.167969 138.382812 L 271.878906 138.382812 C 274.886719 138.382812 277.429688 140.230469 278.359375 143.089844 C 279.289062 145.949219 278.316406 148.941406 275.886719 150.710938 C 275.882812 150.710938 271.265625 154.0625 271.265625 154.0625 C 270.996094 154.257812 270.882812 154.605469 270.984375 154.921875 L 272.75 160.347656 C 273.679688 163.207031 272.714844 166.195312 270.28125 167.964844 C 269.0625 168.851562 267.667969 169.292969 266.269531 169.292969 Z M 257.195312 158.414062 C 258.601562 158.414062 260.003906 158.847656 261.203125 159.71875 L 265.820312 163.074219 C 266.113281 163.296875 266.425781 163.289062 266.722656 163.074219 C 267.019531 162.859375 267.113281 162.570312 267 162.21875 L 265.234375 156.789062 C 264.320312 153.976562 265.316406 150.914062 267.707031 149.171875 L 272.328125 145.816406 C 272.625 145.597656 272.71875 145.3125 272.605469 144.960938 C 272.492188 144.605469 272.246094 144.429688 271.878906 144.429688 L 266.167969 144.429688 C 263.210938 144.429688 260.605469 142.539062 259.691406 139.722656 L 257.929688 134.292969 C 257.695312 133.585938 256.695312 133.59375 256.46875 134.292969 L 254.703125 139.722656 C 253.789062 142.539062 251.183594 144.429688 248.222656 144.429688 L 242.519531 144.429688 C 242.148438 144.429688 241.898438 144.609375 241.785156 144.960938 C 241.671875 145.3125 241.765625 145.597656 242.066406 145.816406 L 246.683594 149.171875 C 249.082031 150.914062 250.074219 153.972656 249.15625 156.789062 L 247.390625 162.21875 C 247.277344 162.570312 247.371094 162.859375 247.671875 163.074219 C 247.972656 163.289062 248.277344 163.289062 248.578125 163.074219 L 253.191406 159.71875 C 254.394531 158.847656 255.792969 158.414062 257.195312 158.414062 Z M 257.195312 158.414062 "/><g clip-rule="nonzero" clip-path="url(#45a4c579d3)"><path style=" stroke:none;fill-rule:nonzero;fill:#ffffff;fill-opacity:1;" d="M 164.914062 99.4375 C 163.515625 99.4375 162.121094 98.996094 160.902344 98.109375 C 158.472656 96.339844 157.503906 93.351562 158.4375 90.492188 L 160.199219 85.066406 C 160.296875 84.75 160.1875 84.402344 159.917969 84.207031 L 155.300781 80.855469 C 152.867188 79.085938 151.894531 76.09375 152.824219 73.234375 C 153.753906 70.375 156.296875 68.527344 159.304688 68.527344 L 165.015625 68.527344 C 165.34375 68.527344 165.636719 68.316406 165.742188 67.996094 L 167.507812 62.566406 C 168.4375 59.710938 170.980469 57.859375 173.984375 57.859375 C 176.992188 57.859375 179.535156 59.710938 180.464844 62.566406 L 182.226562 67.996094 C 182.335938 68.316406 182.625 68.527344 182.960938 68.527344 L 188.664062 68.527344 C 191.671875 68.527344 194.222656 70.375 195.148438 73.238281 C 196.074219 76.097656 195.101562 79.085938 192.667969 80.855469 L 188.050781 84.207031 C 187.789062 84.402344 187.671875 84.75 187.777344 85.066406 L 189.539062 90.496094 C 190.46875 93.355469 189.5 96.34375 187.066406 98.109375 C 184.632812 99.878906 181.488281 99.878906 179.054688 98.113281 L 174.433594 94.757812 C 174.167969 94.5625 173.8125 94.558594 173.539062 94.753906 L 168.921875 98.113281 C 167.699219 98.996094 166.304688 99.4375 164.914062 99.4375 Z M 173.984375 88.558594 C 175.390625 88.558594 176.789062 88.992188 177.992188 89.863281 L 182.609375 93.21875 C 182.902344 93.441406 183.210938 93.4375 183.511719 93.21875 C 183.8125 93.003906 183.902344 92.714844 183.792969 92.363281 L 182.027344 86.9375 C 181.109375 84.121094 182.101562 81.058594 184.496094 79.320312 L 189.117188 75.960938 C 189.417969 75.746094 189.511719 75.457031 189.398438 75.105469 C 189.285156 74.753906 189.035156 74.574219 188.664062 74.574219 L 182.960938 74.574219 C 180 74.574219 177.394531 72.683594 176.480469 69.867188 L 174.714844 64.4375 C 174.492188 63.742188 173.484375 63.734375 173.257812 64.4375 L 171.492188 69.867188 C 170.578125 72.683594 167.972656 74.574219 165.015625 74.574219 L 159.308594 74.574219 C 158.9375 74.574219 158.691406 74.75 158.578125 75.105469 C 158.464844 75.457031 158.558594 75.746094 158.859375 75.960938 L 163.472656 79.316406 C 165.867188 81.058594 166.859375 84.117188 165.953125 86.925781 L 164.183594 92.363281 C 164.070312 92.71875 164.164062 93.003906 164.460938 93.21875 C 164.761719 93.4375 165.066406 93.4375 165.367188 93.21875 L 169.980469 89.863281 C 171.179688 88.992188 172.582031 88.558594 173.984375 88.558594 Z M 173.984375 88.558594 "/></g><g style="fill:#ffffff;fill-opacity:1;"><g transform="translate(37.500002, 296.545586)"><path style="stroke:none" d="M 2.25 -22.5 C 2.25 -27.101562 3.117188 -31.144531 4.859375 -34.625 C 6.597656 -38.101562 8.96875 -40.78125 11.96875 -42.65625 C 14.96875 -44.53125 18.316406 -45.46875 22.015625 -45.46875 C 25.171875 -45.46875 27.941406 -44.828125 30.328125 -43.546875 C 32.710938 -42.265625 34.546875 -40.578125 35.828125 -38.484375 L 35.828125 -44.828125 L 49.578125 -44.828125 L 49.578125 0 L 35.828125 0 L 35.828125 -6.34375 C 34.492188 -4.257812 32.632812 -2.570312 30.25 -1.28125 C 27.863281 0 25.09375 0.640625 21.9375 0.640625 C 18.289062 0.640625 14.96875 -0.304688 11.96875 -2.203125 C 8.96875 -4.109375 6.597656 -6.816406 4.859375 -10.328125 C 3.117188 -13.835938 2.25 -17.894531 2.25 -22.5 Z M 35.828125 -22.421875 C 35.828125 -25.847656 34.875 -28.550781 32.96875 -30.53125 C 31.070312 -32.507812 28.757812 -33.5 26.03125 -33.5 C 23.300781 -33.5 20.984375 -32.519531 19.078125 -30.5625 C 17.179688 -28.613281 16.234375 -25.925781 16.234375 -22.5 C 16.234375 -19.070312 17.179688 -16.351562 19.078125 -14.34375 C 20.984375 -12.332031 23.300781 -11.328125 26.03125 -11.328125 C 28.757812 -11.328125 31.070312 -12.316406 32.96875 -14.296875 C 34.875 -16.285156 35.828125 -18.992188 35.828125 -22.421875 Z M 35.828125 -22.421875 "/></g></g><g style="fill:#ffffff;fill-opacity:1;"><g transform="translate(92.048983, 296.545586)"><path style="stroke:none" d="M 2.25 -22.421875 C 2.25 -27.078125 3.195312 -31.144531 5.09375 -34.625 C 7 -38.101562 9.648438 -40.78125 13.046875 -42.65625 C 16.453125 -44.53125 20.351562 -45.46875 24.75 -45.46875 C 30.375 -45.46875 35.070312 -43.992188 38.84375 -41.046875 C 42.625 -38.109375 45.101562 -33.960938 46.28125 -28.609375 L 31.65625 -28.609375 C 30.425781 -32.035156 28.039062 -33.75 24.5 -33.75 C 21.988281 -33.75 19.984375 -32.769531 18.484375 -30.8125 C 16.984375 -28.851562 16.234375 -26.054688 16.234375 -22.421875 C 16.234375 -18.773438 16.984375 -15.972656 18.484375 -14.015625 C 19.984375 -12.066406 21.988281 -11.09375 24.5 -11.09375 C 28.039062 -11.09375 30.425781 -12.804688 31.65625 -16.234375 L 46.28125 -16.234375 C 45.101562 -10.984375 42.613281 -6.859375 38.8125 -3.859375 C 35.007812 -0.859375 30.320312 0.640625 24.75 0.640625 C 20.351562 0.640625 16.453125 -0.296875 13.046875 -2.171875 C 9.648438 -4.046875 7 -6.722656 5.09375 -10.203125 C 3.195312 -13.679688 2.25 -17.753906 2.25 -22.421875 Z M 2.25 -22.421875 "/></g></g><g style="fill:#ffffff;fill-opacity:1;"><g transform="translate(140.653008, 296.545586)"><path style="stroke:none" d="M 47.234375 -23.140625 C 47.234375 -21.847656 47.15625 -20.507812 47 -19.125 L 15.90625 -19.125 C 16.125 -16.332031 17.019531 -14.203125 18.59375 -12.734375 C 20.175781 -11.265625 22.117188 -10.53125 24.421875 -10.53125 C 27.847656 -10.53125 30.234375 -11.972656 31.578125 -14.859375 L 46.203125 -14.859375 C 45.453125 -11.910156 44.097656 -9.257812 42.140625 -6.90625 C 40.179688 -4.550781 37.726562 -2.703125 34.78125 -1.359375 C 31.84375 -0.0234375 28.550781 0.640625 24.90625 0.640625 C 20.507812 0.640625 16.597656 -0.296875 13.171875 -2.171875 C 9.742188 -4.046875 7.066406 -6.722656 5.140625 -10.203125 C 3.210938 -13.679688 2.25 -17.753906 2.25 -22.421875 C 2.25 -27.078125 3.195312 -31.144531 5.09375 -34.625 C 7 -38.101562 9.664062 -40.78125 13.09375 -42.65625 C 16.519531 -44.53125 20.457031 -45.46875 24.90625 -45.46875 C 29.25 -45.46875 33.101562 -44.554688 36.46875 -42.734375 C 39.84375 -40.921875 42.476562 -38.328125 44.375 -34.953125 C 46.28125 -31.578125 47.234375 -27.640625 47.234375 -23.140625 Z M 33.1875 -26.75 C 33.1875 -29.113281 32.378906 -30.988281 30.765625 -32.375 C 29.160156 -33.769531 27.15625 -34.46875 24.75 -34.46875 C 22.445312 -34.46875 20.503906 -33.796875 18.921875 -32.453125 C 17.335938 -31.117188 16.359375 -29.21875 15.984375 -26.75 Z M 33.1875 -26.75 "/></g></g><g style="fill:#ffffff;fill-opacity:1;"><g transform="translate(190.140745, 296.545586)"><path style="stroke:none" d="M 18.71875 -37.359375 C 20.320312 -39.828125 22.328125 -41.769531 24.734375 -43.1875 C 27.148438 -44.601562 29.832031 -45.3125 32.78125 -45.3125 L 32.78125 -30.765625 L 29 -30.765625 C 25.570312 -30.765625 23 -30.03125 21.28125 -28.5625 C 19.570312 -27.09375 18.71875 -24.507812 18.71875 -20.8125 L 18.71875 0 L 4.984375 0 L 4.984375 -44.828125 L 18.71875 -44.828125 Z M 18.71875 -37.359375 "/></g></g><g style="fill:#ffffff;fill-opacity:1;"><g transform="translate(224.525088, 296.545586)"><path style="stroke:none" d="M 29.96875 -11.65625 L 29.96875 0 L 22.984375 0 C 17.992188 0 14.109375 -1.21875 11.328125 -3.65625 C 8.546875 -6.09375 7.15625 -10.070312 7.15625 -15.59375 L 7.15625 -33.421875 L 1.6875 -33.421875 L 1.6875 -44.828125 L 7.15625 -44.828125 L 7.15625 -55.765625 L 20.890625 -55.765625 L 20.890625 -44.828125 L 29.890625 -44.828125 L 29.890625 -33.421875 L 20.890625 -33.421875 L 20.890625 -15.421875 C 20.890625 -14.085938 21.207031 -13.125 21.84375 -12.53125 C 22.488281 -11.945312 23.5625 -11.65625 25.0625 -11.65625 Z M 29.96875 -11.65625 "/></g></g><g style="fill:#ffffff;fill-opacity:1;"><g transform="translate(257.14201, 296.545586)"><path style="stroke:none" d="M 2.25 -22.5 C 2.25 -27.101562 3.117188 -31.144531 4.859375 -34.625 C 6.597656 -38.101562 8.96875 -40.78125 11.96875 -42.65625 C 14.96875 -44.53125 18.316406 -45.46875 22.015625 -45.46875 C 25.171875 -45.46875 27.941406 -44.828125 30.328125 -43.546875 C 32.710938 -42.265625 34.546875 -40.578125 35.828125 -38.484375 L 35.828125 -44.828125 L 49.578125 -44.828125 L 49.578125 0 L 35.828125 0 L 35.828125 -6.34375 C 34.492188 -4.257812 32.632812 -2.570312 30.25 -1.28125 C 27.863281 0 25.09375 0.640625 21.9375 0.640625 C 18.289062 0.640625 14.96875 -0.304688 11.96875 -2.203125 C 8.96875 -4.109375 6.597656 -6.816406 4.859375 -10.328125 C 3.117188 -13.835938 2.25 -17.894531 2.25 -22.5 Z M 35.828125 -22.421875 C 35.828125 -25.847656 34.875 -28.550781 32.96875 -30.53125 C 31.070312 -32.507812 28.757812 -33.5 26.03125 -33.5 C 23.300781 -33.5 20.984375 -32.519531 19.078125 -30.5625 C 17.179688 -28.613281 16.234375 -25.925781 16.234375 -22.5 C 16.234375 -19.070312 17.179688 -16.351562 19.078125 -14.34375 C 20.984375 -12.332031 23.300781 -11.328125 26.03125 -11.328125 C 28.757812 -11.328125 31.070312 -12.316406 32.96875 -14.296875 C 34.875 -16.285156 35.828125 -18.992188 35.828125 -22.421875 Z M 35.828125 -22.421875 "/></g></g><g style="fill:#ffffff;fill-opacity:1;"><g transform="translate(311.690991, 296.545586)"><path style="stroke:none" d="M 19.765625 -44.828125 L 19.765625 0 L 6.03125 0 L 6.03125 -44.828125 Z M 22.265625 -56 L 2.890625 -47.890625 L 2.890625 -57.359375 L 22.265625 -66.6875 Z M 22.265625 -56 "/></g></g></g></svg>